<svg xmlns="http://www.w3.org/2000/svg" width="240" height="240" viewBox="0 0 240 240">
<!-- Original, deliberately-cheesy 40k clip-art. No Games Workshop art used.
     Swap in your own JPEGs/PNGs here if you'd rather. -->
<defs>
  <g id="sk">
    <path d="M0,-13 C9,-13 13,-6 13,1 C13,7 9,11 7,13 L7,17 L3.5,17 L3.5,14 L-3.5,14 L-3.5,17 L-7,17 L-7,13 C-9,11 -13,7 -13,1 C-13,-6 -9,-13 0,-13 Z" fill="#cdbf9a"/>
    <ellipse cx="-5.5" cy="-1" rx="3.4" ry="4.4" fill="#0b0b0c"/>
    <ellipse cx="5.5" cy="-1" rx="3.4" ry="4.4" fill="#0b0b0c"/>
    <path d="M0,2 l-2.4,5 h4.8 Z" fill="#0b0b0c"/>
    <g stroke="#0b0b0c" stroke-width="1"><line x1="-5" y1="13" x2="-5" y2="16"/><line x1="0" y1="13.5" x2="0" y2="17"/><line x1="5" y1="13" x2="5" y2="16"/></g>
  </g>
  <g id="aq" fill="#b8932e">
    <path d="M0,-6 L8,-9 L7,-5 L16,-9 L13,-3 L23,-6 L10,3 L18,3 L6,9 L4,4 L4,12 L-4,12 L-4,4 L-6,9 L-18,3 L-10,3 L-23,-6 L-13,-3 L-16,-9 L-7,-5 L-8,-9 L0,-6 Z"/>
    <circle cx="-4" cy="-10" r="2.2"/><circle cx="4" cy="-10" r="2.2"/>
  </g>
  <g id="cog">
    <circle r="12" fill="none" stroke="#5a5a64" stroke-width="6" stroke-dasharray="4.2 3.2"/>
    <circle r="6.5" fill="#2a2a30"/><circle r="2.6" fill="#0b0b0c"/>
  </g>
  <g id="cr" fill="#b8932e">
    <rect x="-2.6" y="-14" width="5.2" height="28"/>
    <rect x="-11" y="-3" width="22" height="5.2"/>
    <path d="M0,-16.5 l3,2.5 l-3,2 l-3,-2 Z"/>
  </g>
  <g id="cs">
    <rect x="-2" y="-16" width="4" height="20" fill="#7a7a82"/>
    <rect x="-7" y="4" width="14" height="3.4" fill="#3a3a40"/>
    <rect x="-1.6" y="7" width="3.2" height="7" fill="#3a3a40"/>
    <g fill="#8a0d0d"><path d="M2,-15 l3,2 l-3,1 Z"/><path d="M2,-10 l3,2 l-3,1 Z"/><path d="M2,-5 l3,2 l-3,1 Z"/><path d="M2,0 l3,2 l-3,1 Z"/></g>
  </g>
  <g id="ca">
    <rect x="-3" y="-4" width="6" height="17" fill="#cdbf9a"/>
    <rect x="-3" y="-4" width="6" height="3" fill="#9c906f"/>
    <ellipse cx="0" cy="-9" rx="3" ry="6" fill="#b8932e"/>
    <ellipse cx="0" cy="-8" rx="1.4" ry="3" fill="#8a0d0d"/>
  </g>
  <g id="bl" fill="#8a0d0d">
    <circle cx="0" cy="0" r="6"/>
    <path d="M-3,4 q-1.5,6 0.5,8 q2,-2 0.5,-8 Z"/>
    <circle cx="5" cy="7" r="2.2"/><circle cx="-6" cy="-4" r="1.6"/>
  </g>
  <g id="wsk">
    <g fill="#9c906f"><path d="M-11,-2 l-13,-4 l10,5 l-10,1 l12,2 Z"/><path d="M11,-2 l13,-4 l-10,5 l10,1 l-12,2 Z"/></g>
    <use href="#sk" transform="scale(0.8)"/>
  </g>
</defs>
<g>
  <use href="#sk"  transform="translate(40,44) rotate(-6) scale(1.1)"/>
  <use href="#aq"  transform="translate(150,42) rotate(3)"/>
  <use href="#cr"  transform="translate(210,46) rotate(9) scale(0.9)"/>
  <use href="#cog" transform="translate(42,132)"/>
  <use href="#cs"  transform="translate(122,118) rotate(35) scale(1.05)"/>
  <use href="#ca"  transform="translate(206,126) rotate(-4)"/>
  <use href="#wsk" transform="translate(162,196) rotate(-3)"/>
  <use href="#bl"  transform="translate(46,206) rotate(0) scale(1.1)"/>
  <use href="#cr"  transform="translate(112,202) rotate(-12) scale(0.7)"/>
  <use href="#cog" transform="translate(214,206) scale(0.7)"/>
  <use href="#aq"  transform="translate(80,86) rotate(-2) scale(0.62)"/>
</g>
</svg>
